<svg xmlns="http://www.w3.org/2000/svg" width="179.745" height="48.698" viewBox="0 0 179.745 48.698"><defs><style>.a{fill:none;stroke:#150e4a;}.b{fill:#150e4a;}</style></defs><g transform="translate(0.5 0.5)"><rect class="a" width="178.745" height="47.698" rx="23.849" transform="translate(0 0)"/><g transform="translate(24.306 9.357)"><g transform="translate(0 0.341)"><path class="b" d="M79.037,50.424a5.957,5.957,0,0,1,2.836-5,6.1,6.1,0,0,0-4.8-2.6c-2.021-.212-3.98,1.209-5.011,1.209-1.05,0-2.636-1.188-4.343-1.153a6.4,6.4,0,0,0-5.383,3.283C60,50.2,61.741,56.122,63.971,59.381c1.116,1.6,2.42,3.376,4.125,3.313,1.67-.069,2.293-1.064,4.309-1.064,2,0,2.581,1.064,4.321,1.025,1.792-.03,2.92-1.6,4-3.213a13.155,13.155,0,0,0,1.827-3.722A5.756,5.756,0,0,1,79.037,50.424Z" transform="translate(-61.227 -36.486)"/><path class="b" d="M76.188,40.426a5.871,5.871,0,0,0,1.342-4.2,5.967,5.967,0,0,0-3.861,2,5.579,5.579,0,0,0-1.376,4.046A4.935,4.935,0,0,0,76.188,40.426Z" transform="translate(-61.665 -36.225)"/></g><g transform="translate(31.842)"><g transform="translate(0 11.354)"><path class="b" d="M103.864,58.86h-5.7L96.8,62.9H94.386l5.4-14.946h2.507l5.4,14.946h-2.454ZM98.757,57h4.516l-2.227-6.557h-.062Z" transform="translate(-94.386 -47.704)"/><path class="b" d="M119.946,57.615c0,3.386-1.812,5.562-4.547,5.562a3.7,3.7,0,0,1-3.429-1.907h-.051v5.4h-2.237v-14.5h2.165v1.813h.041a3.864,3.864,0,0,1,3.469-1.926C118.124,52.052,119.946,54.238,119.946,57.615Zm-2.3,0c0-2.207-1.14-3.657-2.879-3.657-1.709,0-2.859,1.481-2.859,3.657,0,2.2,1.149,3.665,2.859,3.665C116.508,61.28,117.648,59.841,117.648,57.615Z" transform="translate(-94.994 -47.867)"/><path class="b" d="M132.436,57.615c0,3.386-1.812,5.562-4.547,5.562a3.7,3.7,0,0,1-3.429-1.907h-.052v5.4h-2.236v-14.5h2.165v1.813h.04a3.867,3.867,0,0,1,3.47-1.926C130.614,52.052,132.436,54.238,132.436,57.615Zm-2.3,0c0-2.207-1.14-3.657-2.88-3.657-1.708,0-2.859,1.481-2.859,3.657,0,2.2,1.15,3.665,2.859,3.665C129,61.28,130.138,59.841,130.138,57.615Z" transform="translate(-95.49 -47.867)"/><path class="b" d="M141.021,58.725c.165,1.483,1.606,2.455,3.573,2.455,1.885,0,3.242-.973,3.242-2.309,0-1.16-.818-1.854-2.755-2.331l-1.938-.467c-2.744-.663-4.018-1.946-4.018-4.029,0-2.578,2.247-4.35,5.438-4.35,3.158,0,5.324,1.772,5.4,4.35H147.7c-.135-1.491-1.368-2.392-3.17-2.392s-3.034.911-3.034,2.237c0,1.056.787,1.678,2.714,2.154l1.647.4c3.066.725,4.34,1.957,4.34,4.144,0,2.8-2.228,4.547-5.77,4.547-3.314,0-5.552-1.709-5.7-4.413Z" transform="translate(-96.147 -47.694)"/><path class="b" d="M155.542,49.485v2.578h2.072v1.772h-2.072v6.008c0,.933.415,1.367,1.326,1.367a7.244,7.244,0,0,0,.736-.051v1.76a6.129,6.129,0,0,1-1.243.1c-2.206,0-3.066-.829-3.066-2.942V53.835H151.71V52.063h1.584V49.485Z" transform="translate(-96.663 -47.765)"/><path class="b" d="M159.107,57.614c0-3.429,2.019-5.583,5.168-5.583s5.17,2.154,5.17,5.583-2,5.583-5.17,5.583S159.107,61.052,159.107,57.614Zm8.059,0c0-2.353-1.077-3.74-2.89-3.74s-2.889,1.4-2.889,3.74c0,2.361,1.076,3.738,2.889,3.738S167.166,59.975,167.166,57.614Z" transform="translate(-96.957 -47.866)"/><path class="b" d="M171.793,52.165h2.134v1.855h.051a2.6,2.6,0,0,1,2.622-1.969,3.511,3.511,0,0,1,.766.083v2.092a3.124,3.124,0,0,0-1-.135,2.254,2.254,0,0,0-2.332,2.507v6.464h-2.236Z" transform="translate(-97.461 -47.867)"/><path class="b" d="M187.928,59.861c-.3,1.978-2.227,3.336-4.692,3.336-3.17,0-5.137-2.124-5.137-5.531s1.978-5.635,5.043-5.635c3.015,0,4.911,2.07,4.911,5.375v.766h-7.7v.135a2.839,2.839,0,0,0,2.932,3.086,2.465,2.465,0,0,0,2.517-1.533Zm-7.561-3.252h5.449a2.621,2.621,0,0,0-2.673-2.766A2.759,2.759,0,0,0,180.367,56.609Z" transform="translate(-97.711 -47.866)"/></g><g transform="translate(1.497)"><path class="b" d="M98.539,36.238c2.13,0,3.379,1.309,3.379,3.568,0,2.294-1.24,3.614-3.379,3.614H95.945V36.238ZM97.06,42.4h1.354c1.5,0,2.369-.935,2.369-2.583a2.264,2.264,0,0,0-2.369-2.568H97.06Z" transform="translate(-95.945 -35.885)"/><path class="b" d="M103.477,40.776a2.567,2.567,0,1,1,5.112,0c0,1.757-.971,2.817-2.553,2.817S103.477,42.533,103.477,40.776Zm4.012,0c0-1.174-.528-1.862-1.454-1.862s-1.453.688-1.453,1.862.522,1.866,1.453,1.866S107.489,41.956,107.489,40.776Z" transform="translate(-96.244 -35.953)"/><path class="b" d="M115.627,43.493h-1.109L113.4,39.5h-.085L112.2,43.493h-1.1l-1.493-5.42h1.084l.971,4.135h.081l1.114-4.135h1.026L115,42.208h.085l.966-4.135h1.07Z" transform="translate(-96.488 -35.958)"/><path class="b" d="M118.734,38.069h1.03v.86h.08a1.622,1.622,0,0,1,1.617-.965,1.763,1.763,0,0,1,1.876,2.016v3.509h-1.07v-3.24c0-.871-.378-1.3-1.17-1.3a1.243,1.243,0,0,0-1.294,1.373v3.171h-1.07Z" transform="translate(-96.85 -35.953)"/><path class="b" d="M125.3,35.87h1.07v7.535H125.3Z" transform="translate(-97.111 -35.87)"/><path class="b" d="M127.965,40.776a2.567,2.567,0,1,1,5.112,0c0,1.757-.971,2.817-2.554,2.817S127.965,42.533,127.965,40.776Zm4.011,0c0-1.174-.527-1.862-1.454-1.862s-1.453.688-1.453,1.862.523,1.866,1.453,1.866S131.976,41.956,131.976,40.776Z" transform="translate(-97.217 -35.953)"/><path class="b" d="M134.461,41.956c0-.976.726-1.538,2.016-1.618l1.468-.085v-.469c0-.572-.378-.895-1.11-.895-.6,0-1.01.219-1.129.6H134.67c.109-.931.985-1.528,2.214-1.528,1.359,0,2.125.676,2.125,1.821v3.7H137.98v-.762H137.9a1.827,1.827,0,0,1-1.629.851A1.637,1.637,0,0,1,134.461,41.956Zm3.484-.464v-.453l-1.323.085c-.747.05-1.085.3-1.085.782s.423.771,1,.771A1.278,1.278,0,0,0,137.945,41.492Z" transform="translate(-97.475 -35.953)"/><path class="b" d="M140.662,40.693c0-1.712.881-2.8,2.25-2.8a1.786,1.786,0,0,1,1.661.951h.08V35.87h1.07v7.535H144.7v-.857h-.085a1.881,1.881,0,0,1-1.7.946C141.533,43.495,140.662,42.41,140.662,40.693Zm1.1,0c0,1.149.543,1.842,1.448,1.842s1.459-.7,1.459-1.837-.563-1.841-1.459-1.841S141.766,39.553,141.766,40.693Z" transform="translate(-97.721 -35.87)"/><path class="b" d="M150.541,40.776a2.567,2.567,0,1,1,5.112,0c0,1.757-.971,2.817-2.554,2.817S150.541,42.533,150.541,40.776Zm4.011,0c0-1.174-.527-1.862-1.454-1.862s-1.453.688-1.453,1.862.523,1.866,1.453,1.866S154.552,41.956,154.552,40.776Z" transform="translate(-98.114 -35.953)"/><path class="b" d="M157.358,38.069h1.03v.86h.08a1.622,1.622,0,0,1,1.617-.965,1.763,1.763,0,0,1,1.876,2.016v3.509h-1.07v-3.24c0-.871-.378-1.3-1.17-1.3a1.243,1.243,0,0,0-1.294,1.373v3.171h-1.07Z" transform="translate(-98.384 -35.953)"/><path class="b" d="M168.365,36.668v1.373h1.174v.9h-1.174V41.73c0,.568.234.816.766.816a3.625,3.625,0,0,0,.408-.025v.891a3.465,3.465,0,0,1-.582.055c-1.189,0-1.663-.419-1.663-1.463v-3.06h-.86v-.9h.86V36.668Z" transform="translate(-98.745 -35.902)"/><path class="b" d="M171.19,35.87h1.06v2.986h.084a1.667,1.667,0,0,1,1.653-.971,1.785,1.785,0,0,1,1.866,2.02v3.5h-1.071V40.17c0-.866-.4-1.3-1.158-1.3a1.266,1.266,0,0,0-1.366,1.373v3.166H171.19Z" transform="translate(-98.934 -35.87)"/><path class="b" d="M182.34,42.025a2.2,2.2,0,0,1-2.349,1.568c-1.552,0-2.5-1.065-2.5-2.8s.971-2.831,2.5-2.831c1.508,0,2.417,1.03,2.417,2.732v.374h-3.827v.06a1.433,1.433,0,0,0,1.443,1.553,1.3,1.3,0,0,0,1.29-.657Zm-3.762-1.747h2.738a1.308,1.308,0,0,0-1.335-1.4A1.386,1.386,0,0,0,178.578,40.278Z" transform="translate(-99.184 -35.953)"/></g></g></g></g></svg>