<svg xmlns="http://www.w3.org/2000/svg" width="22.5" height="24.375" viewBox="0 0 22.5 24.375"><defs><style>.a{fill:#3e83fa;}</style></defs><path class="a" d="M3.75-23.437V.938H14.063v-3.75h1.875V.938H26.25V-23.437Zm1.875,1.875h18.75V-.937H17.813v-3.75H12.188v3.75H5.625ZM7.5-19.687v1.875h3.75v-1.875Zm5.625,0v1.875h3.75v-1.875Zm5.625,0v1.875H22.5v-1.875ZM7.5-15.937v1.875h3.75v-1.875Zm5.625,0v1.875h3.75v-1.875Zm5.625,0v1.875H22.5v-1.875ZM7.5-12.187v1.875h3.75v-1.875Zm5.625,0v1.875h3.75v-1.875Zm5.625,0v1.875H22.5v-1.875ZM7.5-8.437v1.875h3.75V-8.437Zm5.625,0v1.875h3.75V-8.437Zm5.625,0v1.875H22.5V-8.437ZM7.5-4.687v1.875h3.75V-4.687Zm11.25,0v1.875H22.5V-4.687Z" transform="translate(-3.75 23.438)"/></svg>