<svg xmlns="http://www.w3.org/2000/svg" width="30" height="30" viewBox="0 0 30 30"><defs><style>.a{fill:#3e83fb;}.b{fill:none;}</style></defs><g transform="translate(-34 -240)"><path class="a" d="M13.125-23.437a1.825,1.825,0,0,0-1.348.527,1.825,1.825,0,0,0-.527,1.348v.938H2.813v18.75H13.3a9.846,9.846,0,0,1-.176-1.875H4.688V-9.9a3.687,3.687,0,0,0,1.875.527H15a8.537,8.537,0,0,1,1.875-1.875H6.563A1.841,1.841,0,0,1,5.2-11.763a1.841,1.841,0,0,1-.513-1.362V-18.75H25.313v5.625a2.211,2.211,0,0,1-.029.41,9.773,9.773,0,0,1,1.9.85v-8.76H18.75v-.937a1.825,1.825,0,0,0-.527-1.348,1.825,1.825,0,0,0-1.348-.527Zm0,1.875h3.75v.938h-3.75ZM8.438-15v2.813h1.875V-15Zm11.25,0v2.314q.469-.146.938-.249a6.188,6.188,0,0,1,.938-.132V-15ZM22.5-11.25a7.3,7.3,0,0,0-3.75,1.011A7.519,7.519,0,0,0,16.011-7.5,7.3,7.3,0,0,0,15-3.75,7.3,7.3,0,0,0,16.011,0,7.519,7.519,0,0,0,18.75,2.739,7.3,7.3,0,0,0,22.5,3.75a7.3,7.3,0,0,0,3.75-1.011A7.519,7.519,0,0,0,28.989,0,7.3,7.3,0,0,0,30-3.75,7.3,7.3,0,0,0,28.989-7.5a7.519,7.519,0,0,0-2.739-2.739A7.3,7.3,0,0,0,22.5-11.25Zm0,1.875a5.429,5.429,0,0,1,2.813.762,5.733,5.733,0,0,1,2.051,2.051,5.429,5.429,0,0,1,.762,2.813,5.429,5.429,0,0,1-.762,2.813,5.733,5.733,0,0,1-2.051,2.051,5.429,5.429,0,0,1-2.812.762,5.429,5.429,0,0,1-2.812-.762A5.733,5.733,0,0,1,17.637-.937a5.429,5.429,0,0,1-.762-2.812,5.429,5.429,0,0,1,.762-2.812,5.733,5.733,0,0,1,2.051-2.051A5.429,5.429,0,0,1,22.5-9.375Zm-.937.938v5.625H26.25V-4.687H23.438v-3.75Z" transform="translate(32.188 264.438)"/><rect class="b" width="30" height="30" transform="translate(34 240)"/></g></svg>