<svg xmlns="http://www.w3.org/2000/svg" width="40" height="40" viewBox="0 0 40 40"><defs><style>.a{fill:#ecf3ff;}.b{fill:#c5dafe;}</style></defs><g transform="translate(-1198 -40)"><path class="a" d="M20,0A20,20,0,1,1,0,20,20,20,0,0,1,20,0Z" transform="translate(1198 40)"/><path class="b" d="M22.9,24.117a1.2,1.2,0,0,1-1.2-1.074,9.157,9.157,0,0,0-3.123-6.3,10.011,10.011,0,0,0-6.523-2.268,10.011,10.011,0,0,0-6.523,2.268,9.157,9.157,0,0,0-3.123,6.3,1.206,1.206,0,0,1-2.093.678,1.228,1.228,0,0,1-.314-.94,11.5,11.5,0,0,1,7.5-9.91A7.225,7.225,0,0,1,12.058,0a7.609,7.609,0,0,1,.872.051A7.283,7.283,0,0,1,17.1,2.034a7.191,7.191,0,0,1-.491,10.836,11.506,11.506,0,0,1,7.5,9.91,1.219,1.219,0,0,1-1.21,1.337ZM12.059,2.411a4.824,4.824,0,1,0,4.847,4.824A4.84,4.84,0,0,0,12.059,2.411Z" transform="translate(1206 48.441)"/></g></svg>