<svg xmlns="http://www.w3.org/2000/svg" width="70" height="70" viewBox="0 0 70 70"><defs><style>.a{fill:#79f59f;}</style>
</defs>
<path class="a" d="M37.438-20.313a34.268,34.268,0,0,0-17.668,4.8A34.446,34.446,0,0,0,7.233-2.981a34.268,34.268,0,0,0-4.8,17.668,34.268,34.268,0,0,0,4.8,17.668A34.446,34.446,0,0,0,19.769,44.892a34.945,34.945,0,0,0,35.337,0A34.446,34.446,0,0,0,67.642,32.356a34.268,34.268,0,0,0,4.8-17.668A30.468,30.468,0,0,0,70.587,3.666L66.212,7.957a27.659,27.659,0,0,1,.841,6.731,29.127,29.127,0,0,1-4.038,14.976,28.285,28.285,0,0,1-10.6,10.6,29.787,29.787,0,0,1-29.952,0,28.285,28.285,0,0,1-10.6-10.6A29.127,29.127,0,0,1,7.822,14.688,29.127,29.127,0,0,1,11.861-.288a28.285,28.285,0,0,1,10.6-10.6,29.127,29.127,0,0,1,14.976-4.038A28.923,28.923,0,0,1,48.8-12.656,27.46,27.46,0,0,1,57.882-6.6l3.786-3.786a33.64,33.64,0,0,0-10.98-7.32A34.148,34.148,0,0,0,37.438-20.313ZM67.81-8.786,37.438,21.587,25.911,10.06l-3.87,3.87L35.5,27.392l1.935,1.851,1.935-1.851L71.68-4.916Z" transform="translate(-2.438 20.313)"/></svg>