<svg xmlns="http://www.w3.org/2000/svg" width="30" height="30" viewBox="0 0 30 30"><defs><style>.a{fill:#3e83fb;}.b{fill:none;}</style></defs><g transform="translate(-34 -169)"><path class="a" d="M8.438-19.687a5.429,5.429,0,0,0-2.812.762,5.733,5.733,0,0,0-2.051,2.051,5.429,5.429,0,0,0-.762,2.813A5.487,5.487,0,0,0,3.428-11.5a5.619,5.619,0,0,0,1.7,1.978A7.578,7.578,0,0,0,2.095-6.782,7.2,7.2,0,0,0,.938-2.812H2.813a5.429,5.429,0,0,1,.762-2.812A5.733,5.733,0,0,1,5.625-7.676a5.429,5.429,0,0,1,2.813-.762,5.429,5.429,0,0,1,2.813.762A5.733,5.733,0,0,1,13.3-5.625a5.429,5.429,0,0,1,.762,2.813h1.875A5.429,5.429,0,0,1,16.7-5.625,5.733,5.733,0,0,1,18.75-7.676a5.429,5.429,0,0,1,2.813-.762,5.429,5.429,0,0,1,2.813.762,5.733,5.733,0,0,1,2.051,2.051,5.429,5.429,0,0,1,.762,2.813h1.875a7.2,7.2,0,0,0-1.157-3.97,7.578,7.578,0,0,0-3.032-2.739,5.619,5.619,0,0,0,1.7-1.978,5.487,5.487,0,0,0,.615-2.563,5.429,5.429,0,0,0-.762-2.812,5.733,5.733,0,0,0-2.051-2.051,5.429,5.429,0,0,0-2.812-.762,5.429,5.429,0,0,0-2.812.762A5.733,5.733,0,0,0,16.7-16.875a5.429,5.429,0,0,0-.762,2.813,5.487,5.487,0,0,0,.615,2.563,5.619,5.619,0,0,0,1.7,1.978A7.3,7.3,0,0,0,15-6.445a7.3,7.3,0,0,0-3.252-3.076,5.619,5.619,0,0,0,1.7-1.978,5.487,5.487,0,0,0,.615-2.563,5.429,5.429,0,0,0-.762-2.812,5.733,5.733,0,0,0-2.051-2.051A5.429,5.429,0,0,0,8.438-19.687Zm0,1.875a3.718,3.718,0,0,1,1.89.5,3.648,3.648,0,0,1,1.362,1.362,3.718,3.718,0,0,1,.5,1.89,3.718,3.718,0,0,1-.5,1.89,3.648,3.648,0,0,1-1.362,1.362,3.718,3.718,0,0,1-1.89.5,3.718,3.718,0,0,1-1.89-.5,3.648,3.648,0,0,1-1.362-1.362,3.718,3.718,0,0,1-.5-1.89,3.718,3.718,0,0,1,.5-1.89,3.648,3.648,0,0,1,1.362-1.362A3.718,3.718,0,0,1,8.438-17.812Zm13.125,0a3.718,3.718,0,0,1,1.89.5,3.648,3.648,0,0,1,1.362,1.362,3.718,3.718,0,0,1,.5,1.89,3.718,3.718,0,0,1-.5,1.89,3.648,3.648,0,0,1-1.362,1.362,3.718,3.718,0,0,1-1.89.5,3.718,3.718,0,0,1-1.89-.5,3.648,3.648,0,0,1-1.362-1.362,3.718,3.718,0,0,1-.5-1.89,3.718,3.718,0,0,1,.5-1.89,3.648,3.648,0,0,1,1.362-1.362A3.718,3.718,0,0,1,21.563-17.812Z" transform="translate(34.063 195.688)"/><rect class="b" width="30" height="30" transform="translate(34 169)"/></g></svg>