<svg xmlns="http://www.w3.org/2000/svg" width="40" height="40" viewBox="0 0 40 40"><defs><style>.a{fill:#3e83fb;}.b{fill:none;}</style></defs><g transform="translate(-660 -273)"><path class="a" d="M11.25-26.25A7.239,7.239,0,0,0,7.5-25.234,7.643,7.643,0,0,0,4.766-22.5,7.239,7.239,0,0,0,3.75-18.75a7.316,7.316,0,0,0,.82,3.418A7.492,7.492,0,0,0,6.836-12.7,10.1,10.1,0,0,0,2.793-9.043,9.6,9.6,0,0,0,1.25-3.75h2.5A7.239,7.239,0,0,1,4.766-7.5,7.643,7.643,0,0,1,7.5-10.234a7.239,7.239,0,0,1,3.75-1.016A7.239,7.239,0,0,1,15-10.234,7.643,7.643,0,0,1,17.734-7.5,7.239,7.239,0,0,1,18.75-3.75h2.5A7.239,7.239,0,0,1,22.266-7.5,7.643,7.643,0,0,1,25-10.234a7.239,7.239,0,0,1,3.75-1.016,7.239,7.239,0,0,1,3.75,1.016A7.643,7.643,0,0,1,35.234-7.5,7.239,7.239,0,0,1,36.25-3.75h2.5a9.6,9.6,0,0,0-1.543-5.293A10.1,10.1,0,0,0,33.164-12.7a7.492,7.492,0,0,0,2.266-2.637,7.316,7.316,0,0,0,.82-3.418,7.239,7.239,0,0,0-1.016-3.75A7.643,7.643,0,0,0,32.5-25.234a7.239,7.239,0,0,0-3.75-1.016A7.239,7.239,0,0,0,25-25.234,7.643,7.643,0,0,0,22.266-22.5a7.239,7.239,0,0,0-1.016,3.75,7.316,7.316,0,0,0,.82,3.418A7.492,7.492,0,0,0,24.336-12.7,9.728,9.728,0,0,0,20-8.594a9.728,9.728,0,0,0-4.336-4.1,7.492,7.492,0,0,0,2.266-2.637,7.316,7.316,0,0,0,.82-3.418,7.239,7.239,0,0,0-1.016-3.75A7.643,7.643,0,0,0,15-25.234,7.239,7.239,0,0,0,11.25-26.25Zm0,2.5a4.958,4.958,0,0,1,2.52.664,4.864,4.864,0,0,1,1.816,1.816,4.958,4.958,0,0,1,.664,2.52,4.958,4.958,0,0,1-.664,2.52,4.864,4.864,0,0,1-1.816,1.816,4.958,4.958,0,0,1-2.52.664,4.958,4.958,0,0,1-2.52-.664A4.864,4.864,0,0,1,6.914-16.23a4.958,4.958,0,0,1-.664-2.52,4.958,4.958,0,0,1,.664-2.52A4.864,4.864,0,0,1,8.73-23.086,4.958,4.958,0,0,1,11.25-23.75Zm17.5,0a4.958,4.958,0,0,1,2.52.664,4.864,4.864,0,0,1,1.816,1.816,4.958,4.958,0,0,1,.664,2.52,4.958,4.958,0,0,1-.664,2.52,4.864,4.864,0,0,1-1.816,1.816,4.958,4.958,0,0,1-2.52.664,4.958,4.958,0,0,1-2.52-.664,4.864,4.864,0,0,1-1.816-1.816,4.958,4.958,0,0,1-.664-2.52,4.958,4.958,0,0,1,.664-2.52,4.864,4.864,0,0,1,1.816-1.816A4.958,4.958,0,0,1,28.75-23.75Z" transform="translate(660 308)"/><rect class="b" width="40" height="40" transform="translate(660 273)"/></g></svg>