<svg xmlns="http://www.w3.org/2000/svg" width="40" height="40" viewBox="0 0 40 40"><defs><style>.a{fill:#3e83fb;}.b{fill:none;}</style></defs><g transform="translate(-992 -273)"><path class="a" d="M20,0a14.614,14.614,0,0,1-6.484-1.484,15.044,15.044,0,0,1-5.078-4,14.675,14.675,0,0,1-2.93-5.762H8.086a12.192,12.192,0,0,0,2.539,4.531,12.326,12.326,0,0,0,4.141,3.086A12.542,12.542,0,0,0,20-2.5a12.085,12.085,0,0,0,6.289-1.719,12,12,0,0,0,4.492-4.492A12.085,12.085,0,0,0,32.5-15a12.085,12.085,0,0,0-1.719-6.289,12,12,0,0,0-4.492-4.492A12.085,12.085,0,0,0,20-27.5a12.542,12.542,0,0,0-5.234,1.133,12.326,12.326,0,0,0-4.141,3.086A12.192,12.192,0,0,0,8.086-18.75H5.508a14.675,14.675,0,0,1,2.93-5.762,15.044,15.044,0,0,1,5.078-4A14.614,14.614,0,0,1,20-30a14.894,14.894,0,0,1,7.578,2.031,14.86,14.86,0,0,1,5.391,5.391A14.894,14.894,0,0,1,35-15a14.894,14.894,0,0,1-2.031,7.578A14.559,14.559,0,0,1,27.578-2.07,14.678,14.678,0,0,1,20,0Zm-.82-9.1-1.8-1.8,2.852-2.852H5v-2.5H20.234L17.383-19.1l1.8-1.8,5,5,.859.9-.859.9Z" transform="translate(1032 278) rotate(180)"/><rect class="b" width="40" height="40" transform="translate(992 273)"/></g></svg>