<svg xmlns="http://www.w3.org/2000/svg" width="72.881" height="55.41" viewBox="0 0 72.881 55.41"><defs><style>.a{fill:#fff;}</style></defs><g transform="translate(-134.904 -136.518)"><g transform="translate(134.904 181.448)"><path class="a" d="M134.9,238.072h2.419c.02.665.6,1.108,1.774,1.108,1.229,0,1.753-.5,1.753-1.108,0-.766-.887-.867-1.955-1.008-1.531-.2-3.789-.464-3.789-2.9,0-2.036,1.552-3.365,3.95-3.365,2.439,0,3.93,1.371,3.991,3.124h-2.378c-.061-.6-.625-1.028-1.572-1.028-1.048,0-1.572.5-1.572,1.088,0,.766.907.887,1.975,1.028,1.33.181,3.769.443,3.769,2.922,0,2.015-1.632,3.345-4.172,3.345S134.965,239.926,134.9,238.072Z" transform="translate(-134.904 -230.796)"/><path class="a" d="M154.527,236.137a5.121,5.121,0,0,1,5.381-5.341,5.041,5.041,0,0,1,5.3,5.321v4.9h-2.2v-1.955a3.616,3.616,0,0,1-3.527,2.217A4.892,4.892,0,0,1,154.527,236.137Zm8.284-.1a2.933,2.933,0,1,0-2.922,3A2.825,2.825,0,0,0,162.811,236.036Z" transform="translate(-145.14 -230.796)"/><path class="a" d="M180.782,235.834c0-3.325,1.975-5.038,4.918-5.038s4.917,1.693,4.917,5.038v5.18h-2.4v-5.18c0-1.894-1.007-2.8-2.519-2.8s-2.52.907-2.52,2.8v5.18h-2.4Z" transform="translate(-158.913 -230.796)"/><path class="a" d="M204.337,236.137a5.121,5.121,0,0,1,5.381-5.341,5.041,5.041,0,0,1,5.3,5.321v4.9h-2.2v-1.955a3.616,3.616,0,0,1-3.527,2.217A4.892,4.892,0,0,1,204.337,236.137Zm8.283-.1a2.933,2.933,0,1,0-2.922,3A2.825,2.825,0,0,0,212.62,236.036Z" transform="translate(-171.241 -230.796)"/><path class="a" d="M229.572,236.137a5.121,5.121,0,0,1,5.381-5.341,5.041,5.041,0,0,1,5.3,5.321v4.9h-2.2v-1.955a3.616,3.616,0,0,1-3.527,2.217A4.892,4.892,0,0,1,229.572,236.137Zm8.284-.1a2.933,2.933,0,1,0-2.922,3A2.825,2.825,0,0,0,237.856,236.036Z" transform="translate(-184.448 -230.796)"/><path class="a" d="M255.874,235.331c0-3.124,1.814-4.535,4.172-4.535a3.878,3.878,0,0,1,3.446,1.794,3.832,3.832,0,0,1,3.446-1.794c2.358,0,4.172,1.411,4.172,4.535v5.683h-2.4v-5.683c0-1.633-.846-2.3-2.015-2.3-1.149,0-2,.685-2,2.3v5.683h-2.4v-5.683c0-1.613-.867-2.3-2.015-2.3-1.169,0-2.015.664-2.015,2.3v5.683h-2.4Z" transform="translate(-198.23 -230.796)"/></g><path class="a" d="M6875.2,773.563v14.85H6863.62v-14.85h-9.405v14.85h-11.58v-14.85a11.582,11.582,0,0,1-11.583-11.579h-5.792v-.919a10.662,10.662,0,0,1,10.664-10.665h6.711v11.584h5.435a10.874,10.874,0,0,1,21.725.706c0,.353-.018.7-.051,1.045a11.572,11.572,0,0,1,5.46,9.829Z" transform="translate(-6686.225 -613.882)"/></g></svg>