<svg xmlns="http://www.w3.org/2000/svg" xmlns:xlink="http://www.w3.org/1999/xlink" width="76.206" height="57.937" viewBox="0 0 76.206 57.937"><defs><style>.a{fill:#293666;}.b{fill:url(#a);}</style><linearGradient id="a" x1="0.5" y1="-0.295" x2="0.5" y2="1.735" gradientUnits="objectBoundingBox"><stop offset="0" stop-color="#51f0a1"/><stop offset="1" stop-color="#2178f9"/></linearGradient></defs><g transform="translate(-134.904 -136.518)"><g transform="translate(134.904 183.497)"><path class="a" d="M134.9,238.4h2.529c.021.7.632,1.158,1.855,1.158,1.285,0,1.833-.526,1.833-1.158,0-.8-.927-.906-2.044-1.054-1.6-.211-3.962-.485-3.962-3.035,0-2.128,1.623-3.519,4.13-3.519,2.55,0,4.109,1.433,4.173,3.266h-2.487c-.064-.632-.653-1.074-1.644-1.074-1.1,0-1.644.526-1.644,1.137,0,.8.948.927,2.065,1.075,1.391.19,3.941.463,3.941,3.056,0,2.107-1.707,3.5-4.362,3.5S134.968,240.343,134.9,238.4Z" transform="translate(-134.904 -230.796)"/><path class="a" d="M154.527,236.38a5.355,5.355,0,0,1,5.627-5.584,5.271,5.271,0,0,1,5.542,5.563v5.121h-2.3v-2.044a3.781,3.781,0,0,1-3.688,2.318A5.115,5.115,0,0,1,154.527,236.38Zm8.662-.105a3.067,3.067,0,1,0-3.056,3.139A2.954,2.954,0,0,0,163.189,236.275Z" transform="translate(-144.711 -230.796)"/><path class="a" d="M180.782,236.064c0-3.477,2.065-5.268,5.142-5.268s5.142,1.77,5.142,5.268v5.416h-2.508v-5.416c0-1.981-1.053-2.929-2.634-2.929s-2.635.948-2.635,2.929v5.416h-2.508Z" transform="translate(-157.915 -230.796)"/><path class="a" d="M204.337,236.38a5.354,5.354,0,0,1,5.627-5.584,5.271,5.271,0,0,1,5.542,5.563v5.121h-2.3v-2.044a3.781,3.781,0,0,1-3.688,2.318A5.115,5.115,0,0,1,204.337,236.38Zm8.661-.105a3.067,3.067,0,1,0-3.055,3.139A2.954,2.954,0,0,0,213,236.275Z" transform="translate(-169.732 -230.796)"/><path class="a" d="M229.572,236.38A5.355,5.355,0,0,1,235.2,230.8a5.27,5.27,0,0,1,5.542,5.563v5.121h-2.3v-2.044a3.781,3.781,0,0,1-3.688,2.318A5.115,5.115,0,0,1,229.572,236.38Zm8.662-.105a3.067,3.067,0,1,0-3.056,3.139A2.954,2.954,0,0,0,238.234,236.275Z" transform="translate(-182.389 -230.796)"/><path class="a" d="M255.874,235.538c0-3.266,1.9-4.742,4.362-4.742a4.055,4.055,0,0,1,3.6,1.875,4.007,4.007,0,0,1,3.6-1.875c2.466,0,4.362,1.475,4.362,4.742v5.943H269.3v-5.943c0-1.707-.885-2.4-2.107-2.4-1.2,0-2.086.716-2.086,2.4v5.943H262.6v-5.943c0-1.686-.906-2.4-2.107-2.4-1.223,0-2.107.695-2.107,2.4v5.943h-2.508Z" transform="translate(-195.6 -230.796)"/></g><path class="b" d="M6877.481,774.619v15.527H6865.37V774.619h-9.835v15.527h-12.108V774.619a12.11,12.11,0,0,1-12.111-12.107h-6.056v-.96a11.148,11.148,0,0,1,11.149-11.152h7.018v12.112h5.683a11.37,11.37,0,0,1,22.716.738q0,.553-.053,1.093a12.1,12.1,0,0,1,5.709,10.277Z" transform="translate(-6686.037 -613.882)"/></g></svg>