<svg xmlns="http://www.w3.org/2000/svg" xmlns:xlink="http://www.w3.org/1999/xlink" width="100" height="76.027" viewBox="0 0 100 76.027"><defs><style>.a{fill:#293666;}.b{fill:url(#a);}</style><linearGradient id="a" x1="0.5" y1="-0.295" x2="0.5" y2="1.735" gradientUnits="objectBoundingBox"><stop offset="0" stop-color="#51f0a1"/><stop offset="1" stop-color="#2178f9"/></linearGradient></defs><g transform="translate(-134.904 -136.518)"><g transform="translate(134.904 198.166)"><path class="a" d="M134.9,240.779h3.319c.028.912.83,1.52,2.434,1.52,1.686,0,2.406-.691,2.406-1.52,0-1.052-1.217-1.189-2.683-1.383-2.1-.276-5.2-.636-5.2-3.982,0-2.793,2.129-4.618,5.42-4.618,3.346,0,5.392,1.881,5.476,4.286h-3.263c-.083-.829-.857-1.41-2.157-1.41-1.438,0-2.158.691-2.158,1.493,0,1.052,1.245,1.217,2.71,1.411,1.825.249,5.171.608,5.171,4.01,0,2.765-2.24,4.59-5.724,4.59S134.987,243.323,134.9,240.779Z" transform="translate(-134.904 -230.796)"/><path class="a" d="M154.527,238.124a7.027,7.027,0,0,1,7.384-7.328,6.916,6.916,0,0,1,7.273,7.3v6.72h-3.014v-2.682a4.961,4.961,0,0,1-4.84,3.042A6.712,6.712,0,0,1,154.527,238.124Zm11.366-.138a4.025,4.025,0,1,0-4.01,4.12A3.876,3.876,0,0,0,165.893,237.986Z" transform="translate(-141.647 -230.796)"/><path class="a" d="M180.782,237.709c0-4.563,2.71-6.913,6.748-6.913s6.747,2.323,6.747,6.913v7.107h-3.291v-7.107c0-2.6-1.382-3.843-3.457-3.843s-3.457,1.244-3.457,3.843v7.107h-3.291Z" transform="translate(-150.776 -230.796)"/><path class="a" d="M204.337,238.124a7.026,7.026,0,0,1,7.384-7.328,6.916,6.916,0,0,1,7.273,7.3v6.72h-3.014v-2.682a4.961,4.961,0,0,1-4.84,3.042A6.712,6.712,0,0,1,204.337,238.124Zm11.366-.138a4.025,4.025,0,1,0-4.009,4.12A3.876,3.876,0,0,0,215.7,237.986Z" transform="translate(-158.927 -230.796)"/><path class="a" d="M229.572,238.124a7.027,7.027,0,0,1,7.384-7.328,6.916,6.916,0,0,1,7.273,7.3v6.72h-3.014v-2.682a4.962,4.962,0,0,1-4.84,3.042A6.712,6.712,0,0,1,229.572,238.124Zm11.366-.138a4.025,4.025,0,1,0-4.01,4.12A3.876,3.876,0,0,0,240.938,237.986Z" transform="translate(-167.658 -230.796)"/><path class="a" d="M255.874,237.018c0-4.286,2.488-6.222,5.724-6.222a5.321,5.321,0,0,1,4.729,2.461,5.258,5.258,0,0,1,4.729-2.461c3.235,0,5.724,1.936,5.724,6.222v7.8h-3.291v-7.8c0-2.24-1.161-3.152-2.765-3.152-1.576,0-2.738.939-2.738,3.152v7.8H264.7v-7.8c0-2.213-1.189-3.152-2.765-3.152-1.6,0-2.765.912-2.765,3.152v7.8h-3.291Z" transform="translate(-176.78 -230.796)"/></g><path class="b" d="M6893.786,782.182v20.375h-15.893V782.182h-12.9v20.375H6849.1V782.182a15.892,15.892,0,0,1-15.893-15.888h-7.946v-1.26a14.629,14.629,0,0,1,14.631-14.633h9.208v15.894h7.458a14.92,14.92,0,0,1,29.809.968q0,.726-.07,1.434a15.877,15.877,0,0,1,7.492,13.486Z" transform="translate(-6684.688 -613.882)"/></g></svg>