<svg xmlns="http://www.w3.org/2000/svg" width="22.5" height="18.75" viewBox="0 0 22.5 18.75">
<defs><style>.a{fill:#3E83FB;}</style></defs>
<path class="a" d="M15-20.625a11.009,11.009,0,0,0-5.684,1.553A10.7,10.7,0,0,0,5.3-15.059,11.009,11.009,0,0,0,3.75-9.375a11.35,11.35,0,0,0,.674,3.867,11.529,11.529,0,0,0,1.9,3.281l.264.352H23.408l.264-.352a11.529,11.529,0,0,0,1.9-3.281,11.35,11.35,0,0,0,.674-3.867,11.17,11.17,0,0,0-1.523-5.684,10.919,10.919,0,0,0-4.043-4.014A11.009,11.009,0,0,0,15-20.625Zm0,1.875a9.218,9.218,0,0,1,4.746,1.289,9.13,9.13,0,0,1,3.34,3.34,9.218,9.218,0,0,1,1.289,4.746,8.843,8.843,0,0,1-.527,3.018A9.631,9.631,0,0,1,22.441-3.75H7.559A9.631,9.631,0,0,1,6.152-6.357a8.843,8.843,0,0,1-.527-3.018,9.218,9.218,0,0,1,1.289-4.746,9.13,9.13,0,0,1,3.34-3.34A9.218,9.218,0,0,1,15-18.75Zm0,.938a.9.9,0,0,0-.659.278.9.9,0,0,0-.278.659.9.9,0,0,0,.278.659.9.9,0,0,0,.659.278.9.9,0,0,0,.659-.278.9.9,0,0,0,.278-.659.9.9,0,0,0-.278-.659A.9.9,0,0,0,15-17.812Zm-3.75,1a.9.9,0,0,0-.659.278.9.9,0,0,0-.278.659.9.9,0,0,0,.278.659.9.9,0,0,0,.659.278.9.9,0,0,0,.659-.278.9.9,0,0,0,.278-.659.9.9,0,0,0-.278-.659A.9.9,0,0,0,11.25-16.816Zm7.5,0a.9.9,0,0,0-.659.278.9.9,0,0,0-.278.659.9.9,0,0,0,.278.659.9.9,0,0,0,.659.278.9.9,0,0,0,.659-.278.9.9,0,0,0,.278-.659.9.9,0,0,0-.278-.659A.9.9,0,0,0,18.75-16.816ZM8.5-14.062a.9.9,0,0,0-.659.278.9.9,0,0,0-.278.659.9.9,0,0,0,.278.659.9.9,0,0,0,.659.278.9.9,0,0,0,.659-.278.9.9,0,0,0,.278-.659.9.9,0,0,0-.278-.659A.9.9,0,0,0,8.5-14.062Zm12.744.029-5.3,3.047A1.792,1.792,0,0,0,15-11.25a1.812,1.812,0,0,0-1.333.542,1.812,1.812,0,0,0-.542,1.333,1.812,1.812,0,0,0,.542,1.333,1.794,1.794,0,0,0,1.318.542,1.843,1.843,0,0,0,1.333-.542,1.754,1.754,0,0,0,.557-1.3v-.029l5.3-3.018ZM7.5-10.312a.9.9,0,0,0-.659.278.9.9,0,0,0-.278.659.9.9,0,0,0,.278.659.9.9,0,0,0,.659.278.9.9,0,0,0,.659-.278.9.9,0,0,0,.278-.659.9.9,0,0,0-.278-.659A.9.9,0,0,0,7.5-10.312Zm15,0a.9.9,0,0,0-.659.278.9.9,0,0,0-.278.659.9.9,0,0,0,.278.659.9.9,0,0,0,.659.278.9.9,0,0,0,.659-.278.9.9,0,0,0,.278-.659.9.9,0,0,0-.278-.659A.9.9,0,0,0,22.5-10.312Zm-14,3.75a.9.9,0,0,0-.659.278.9.9,0,0,0-.278.659.9.9,0,0,0,.278.659.9.9,0,0,0,.659.278.9.9,0,0,0,.659-.278.9.9,0,0,0,.278-.659.9.9,0,0,0-.278-.659A.9.9,0,0,0,8.5-6.562Zm13.008,0a.9.9,0,0,0-.659.278.9.9,0,0,0-.278.659.9.9,0,0,0,.278.659.9.9,0,0,0,.659.278.9.9,0,0,0,.659-.278.9.9,0,0,0,.278-.659.9.9,0,0,0-.278-.659A.9.9,0,0,0,21.5-6.562Z" transform="translate(-3.75 20.625)"/>
</svg>