<svg xmlns="http://www.w3.org/2000/svg" width="179.745" height="48.698" viewBox="0 0 179.745 48.698"><defs><style>.a{fill:none;stroke:#150e4a;}.b,.c,.d{fill:#150e4a;}.b{fill-rule:evenodd;}.c{stroke:#fff;stroke-miterlimit:10;stroke-width:0.087px;}</style></defs><g transform="translate(0.5 0.5)"><rect class="a" width="178.745" height="47.698" rx="23.849" transform="translate(0 0)"/><g transform="translate(24.533 8.684)"><g transform="translate(0 1.542)"><path class="b" d="M62.077,107.082c-.021,0-.033.012-.054.033l.043-.043Z" transform="translate(-61.485 -106.707)"/><path class="b" d="M61.989,135.346c.033.022.054.044.086.065l-.011.012Z" transform="translate(-61.484 -107.83)"/><path class="b" d="M75.2,120.7,61.838,134.049a2.084,2.084,0,0,1-.37-1.337V108.679a2.028,2.028,0,0,1,.38-1.336Z" transform="translate(-61.463 -106.718)"/><path class="b" d="M75.694,120.214l-13.32-13.321a1.724,1.724,0,0,1,1.879.174l15.678,8.921Z" transform="translate(-61.499 -106.692)"/><path class="b" d="M75.706,121.735l4.226,4.226-15.668,8.909a1.765,1.765,0,0,1-1.89.185Z" transform="translate(-61.499 -107.29)"/><path class="b" d="M86,122.644l-4.911,2.792-4.357-4.357,4.357-4.368L86,119.5C87.521,120.362,87.521,121.775,86,122.644Z" transform="translate(-62.069 -107.09)"/></g><g transform="translate(31.615)"><g transform="translate(0.367)"><path class="c" d="M101.93,109.074a3.2,3.2,0,0,1-.88,2.364,3.433,3.433,0,0,1-2.6,1.049,3.7,3.7,0,1,1,0-7.4,3.649,3.649,0,0,1,1.454.3,2.924,2.924,0,0,1,1.108.791l-.622.623a2.394,2.394,0,0,0-1.94-.84,2.83,2.83,0,1,0,1.979,4.869,2.233,2.233,0,0,0,.593-1.436H98.448v-.851h3.433A2.987,2.987,0,0,1,101.93,109.074Z" transform="translate(-94.768 -105.086)"/><path class="c" d="M107.723,106.122H104.5v2.246h2.91v.851H104.5v2.246h3.227v.87h-4.136v-7.084h4.136Z" transform="translate(-95.118 -105.093)"/><path class="c" d="M111.771,112.335h-.91v-6.213h-1.979v-.871h4.869v.871h-1.979Z" transform="translate(-95.329 -105.093)"/><path class="c" d="M117.62,112.335v-7.084h.909v7.084Z" transform="translate(-95.676 -105.093)"/><path class="c" d="M122.652,112.335h-.91v-6.213h-1.979v-.871h4.869v.871h-1.979Z" transform="translate(-95.761 -105.093)"/><path class="c" d="M134.171,111.413a3.678,3.678,0,0,1-5.194,0,3.83,3.83,0,0,1,0-5.254,3.668,3.668,0,0,1,5.19,0,3.816,3.816,0,0,1,0,5.249Zm-4.522-.593a2.724,2.724,0,0,0,3.849,0,3.019,3.019,0,0,0,0-4.067,2.724,2.724,0,0,0-3.849,0,3.022,3.022,0,0,0,0,4.067Z" transform="translate(-96.085 -105.086)"/><path class="c" d="M136.847,112.335v-7.084h1.107l3.444,5.511h.039L141.4,109.4v-4.146h.91v7.084h-.95l-3.6-5.778h-.039l.039,1.366v4.412Z" transform="translate(-96.439 -105.093)"/></g><path class="d" d="M126.377,123.159a5.022,5.022,0,1,0,5.041,5.021A4.95,4.95,0,0,0,126.377,123.159Zm0,8.065a3.051,3.051,0,1,1,2.834-3.044A2.906,2.906,0,0,1,126.377,131.225Zm-11-8.065a5.022,5.022,0,1,0,5.041,5.021A4.95,4.95,0,0,0,115.38,123.159Zm0,8.065a3.051,3.051,0,1,1,2.835-3.044A2.905,2.905,0,0,1,115.38,131.225ZM102.3,124.7v2.131h5.1a4.442,4.442,0,0,1-1.16,2.682,5.222,5.222,0,0,1-3.938,1.559,5.669,5.669,0,0,1,0-11.337,5.437,5.437,0,0,1,3.843,1.522l1.5-1.5a7.432,7.432,0,0,0-5.346-2.149,7.8,7.8,0,1,0,0,15.6,7.135,7.135,0,0,0,5.441-2.188,7.043,7.043,0,0,0,1.845-4.984,6.9,6.9,0,0,0-.114-1.332Zm53.5,1.656a4.667,4.667,0,0,0-4.3-3.2,4.772,4.772,0,0,0-4.736,5.021,4.915,4.915,0,0,0,4.984,5.022,5,5,0,0,0,4.185-2.226l-1.712-1.141a2.868,2.868,0,0,1-2.473,1.389,2.555,2.555,0,0,1-2.435-1.522l6.715-2.777Zm-6.848,1.674a2.755,2.755,0,0,1,2.624-2.93,1.945,1.945,0,0,1,1.865,1.066Zm-5.459,4.87h2.207v-14.76h-2.207Zm-3.614-8.617H139.8a3.479,3.479,0,0,0-2.644-1.123,5.026,5.026,0,0,0,0,10.044,3.422,3.422,0,0,0,2.644-1.142h.076v.723c0,1.922-1.027,2.948-2.682,2.948a2.777,2.777,0,0,1-2.529-1.788l-1.922.8a4.785,4.785,0,0,0,4.451,2.967c2.587,0,4.775-1.521,4.775-5.231v-9.016h-2.092Zm-2.529,6.943a3.055,3.055,0,0,1,0-6.087,3.068,3.068,0,0,1,0,6.087Zm28.786-13.087h-5.279V132.9h2.2v-5.593h3.076a4.591,4.591,0,1,0,0-9.168Zm.058,7.114h-3.133v-5.06h3.133a2.53,2.53,0,1,1,0,5.06Zm13.615-2.119a4.135,4.135,0,0,0-3.93,2.26l1.956.816a2.088,2.088,0,0,1,2.013-1.082,2.122,2.122,0,0,1,2.317,1.9v.153a4.87,4.87,0,0,0-2.3-.57c-2.108,0-4.254,1.159-4.254,3.324a3.41,3.41,0,0,0,3.665,3.248,3.106,3.106,0,0,0,2.81-1.443h.077v1.139h2.126v-5.659C184.285,124.594,182.328,123.132,179.8,123.132Zm-.265,8.089c-.722,0-1.729-.361-1.729-1.253,0-1.14,1.253-1.577,2.335-1.577a3.932,3.932,0,0,1,2.014.494A2.671,2.671,0,0,1,179.538,131.222Zm12.5-7.767-2.526,6.4h-.077l-2.621-6.4h-2.373l3.93,8.944-2.24,4.975h2.3l6.058-13.919ZM172.189,132.9h2.2v-14.76h-2.2Z" transform="translate(-94.386 -105.583)"/></g></g></g></svg>