<svg xmlns="http://www.w3.org/2000/svg" width="40" height="40" viewBox="0 0 40 40"><defs><style>.a{fill:#3e83fb;}.b{fill:none;}</style></defs><g transform="translate(-326 -273)"><path class="a" d="M2.5-26.25V-5h35V-26.25Zm5,2.5h25a2.416,2.416,0,0,0,.723,1.777A2.416,2.416,0,0,0,35-21.25V-10a2.416,2.416,0,0,0-1.777.723A2.416,2.416,0,0,0,32.5-7.5H7.5a2.416,2.416,0,0,0-.723-1.777A2.416,2.416,0,0,0,5-10V-21.25a2.416,2.416,0,0,0,1.777-.723A2.416,2.416,0,0,0,7.5-23.75ZM20-21.25a4.477,4.477,0,0,0-2.52.762,5.336,5.336,0,0,0-1.816,2.051A6.05,6.05,0,0,0,15-15.625a6.05,6.05,0,0,0,.664,2.813,5.336,5.336,0,0,0,1.816,2.051A4.477,4.477,0,0,0,20-10a4.477,4.477,0,0,0,2.52-.762,5.336,5.336,0,0,0,1.816-2.051A6.05,6.05,0,0,0,25-15.625a6.05,6.05,0,0,0-.664-2.812,5.336,5.336,0,0,0-1.816-2.051A4.477,4.477,0,0,0,20-21.25Zm0,2.5a2.2,2.2,0,0,1,1.758.918,3.4,3.4,0,0,1,.742,2.207,3.4,3.4,0,0,1-.742,2.207A2.2,2.2,0,0,1,20-12.5a2.2,2.2,0,0,1-1.758-.918,3.4,3.4,0,0,1-.742-2.207,3.4,3.4,0,0,1,.742-2.207A2.2,2.2,0,0,1,20-18.75ZM10.625-17.5a1.808,1.808,0,0,0-1.328.547,1.808,1.808,0,0,0-.547,1.328A1.808,1.808,0,0,0,9.3-14.3a1.808,1.808,0,0,0,1.328.547,1.808,1.808,0,0,0,1.328-.547,1.808,1.808,0,0,0,.547-1.328,1.808,1.808,0,0,0-.547-1.328A1.808,1.808,0,0,0,10.625-17.5Zm18.75,0a1.808,1.808,0,0,0-1.328.547,1.808,1.808,0,0,0-.547,1.328,1.808,1.808,0,0,0,.547,1.328,1.808,1.808,0,0,0,1.328.547A1.808,1.808,0,0,0,30.7-14.3a1.808,1.808,0,0,0,.547-1.328,1.808,1.808,0,0,0-.547-1.328A1.808,1.808,0,0,0,29.375-17.5Z" transform="translate(326 308)"/><rect class="b" width="40" height="40" transform="translate(326 273)"/></g></svg>