<svg xmlns="http://www.w3.org/2000/svg" width="118.167" height="118.166" viewBox="0 0 118.167 118.166"><defs><style>.a{fill:#79f59f;fill-rule:evenodd;}</style></defs><g transform="translate(-2 -3)"><path class="a" d="M36.666,13.789a2.192,2.192,0,0,0-1.939,1.23L2.218,81.6a2.193,2.193,0,0,0,2.932,2.924L71.722,52.01a2.194,2.194,0,0,0,1.007-2.932,2.281,2.281,0,0,0-.425-.591L38.246,14.428A2.194,2.194,0,0,0,36.666,13.789Zm.652,5.917L67.039,49.419,8.954,77.792Z" transform="translate(0 36.429)"/><path class="a" d="M14.2,19.065V37.648h4.381V19.065Z" transform="translate(41.207 54.244)"/><path class="a" d="M12.081,16.943V49.452h4.377V16.943Z" transform="translate(34.039 47.079)"/><path class="a" d="M9.958,14.82V61.264h4.377V14.82Z" transform="translate(26.87 39.911)"/><path class="a" d="M7.837,17.65V56.361h4.377V17.65Z" transform="translate(19.708 49.467)"/><path class="a" d="M5.714,21.895V46.666h4.377V21.895Z" transform="translate(12.54 63.8)"/><path class="a" d="M46.626,9.2a2.194,2.194,0,0,0-1.506.656L15.75,39.225a2.19,2.19,0,0,0,3.042,3.151l.053-.053L48.215,12.948A2.187,2.187,0,0,0,46.626,9.2Z" transform="translate(44.169 20.924)"/><path class="a" d="M35.9,15.894a26.139,26.139,0,0,0-18.557,7.663A2.188,2.188,0,0,0,20.389,26.7l.053-.053a21.827,21.827,0,0,1,30.942.044l1.523,1.527a2.19,2.19,0,1,0,3.112-3.081L56,25.12,54.478,23.6A26.216,26.216,0,0,0,35.9,15.916Z" transform="translate(49.565 43.537)"/><path class="a" d="M19.395,7.421a2.191,2.191,0,0,0-1.519,3.764l.5.5a5.612,5.612,0,0,1,.267,7.965A2.19,2.19,0,0,0,21.688,22.8l.053-.053a10.05,10.05,0,0,0-.267-14.158l-.5-.5a2.177,2.177,0,0,0-1.576-.665Z" transform="translate(51.36 14.928)"/><path class="a" d="M28.642,13.119a9.6,9.6,0,0,0-7.051,2.788,2.188,2.188,0,1,0,3.042,3.147L24.686,19a5.608,5.608,0,0,1,7.965.267l.508.512A2.187,2.187,0,1,0,36.3,16.738l-.048-.053-.508-.512a10.383,10.383,0,0,0-7.1-3.05Z" transform="translate(63.895 34.159)"/><path class="a" d="M24.922,18.816A13.465,13.465,0,0,0,19.434,20.4,2.19,2.19,0,1,0,21.5,24.269l.031-.018c4.622-2.517,11.217-.486,14.5,4.893l.613,1.015A2.19,2.19,0,0,0,40.389,27.9l-.013-.022-.617-1.015A16.43,16.43,0,0,0,24.922,18.816Z" transform="translate(54.95 53.286)"/><path class="a" d="M12.474,8.6a2.19,2.19,0,0,0-1.028,4.07l1.02.626c5.374,3.282,7.4,9.865,4.88,14.486A2.191,2.191,0,0,0,21.183,29.9l.009-.018c3.777-6.941.735-15.935-6.447-20.32L13.73,8.933A2.23,2.23,0,0,0,12.474,8.6Z" transform="translate(28.28 18.904)"/><path class="a" d="M28.91,6.717a2.188,2.188,0,0,0-1.5.661l-3.2,3.195a2.188,2.188,0,1,0,3.042,3.147l.053-.053,3.2-3.195A2.191,2.191,0,0,0,28.91,6.717Z" transform="translate(72.739 12.547)"/><path class="a" d="M25.7,7.459a2.188,2.188,0,0,0-.941,4.145l4.053,2.079a2.189,2.189,0,1,0,1.991-3.9L26.746,7.7a2.187,2.187,0,0,0-1.05-.249Z" transform="translate(72.75 15.039)"/><path class="a" d="M26.361,7.454a2.181,2.181,0,0,0-2.245,1.878l-.7,4.482a2.189,2.189,0,0,0,4.324.687l0-.013.7-4.477a2.191,2.191,0,0,0-1.79-2.525A2.156,2.156,0,0,0,26.361,7.454Z" transform="translate(72.203 15.034)"/><path class="a" d="M29.24,7.455a1.8,1.8,0,0,0-.376.044l-4.482.691a2.188,2.188,0,1,0,.639,4.328l.039,0,4.477-.691a2.188,2.188,0,0,0-.3-4.359Z" transform="translate(69.258 15.043)"/><path class="a" d="M25.277,6.519a2.189,2.189,0,0,0-1.956,3.212l2.066,4.053a2.191,2.191,0,0,0,3.9-2L27.216,7.74a2.184,2.184,0,0,0-1.939-1.221Z" transform="translate(71.133 11.882)"/><path class="a" d="M15.324,6.185A2.191,2.191,0,0,0,13.8,9.94l1.523,1.527a21.841,21.841,0,0,1,.026,30.938,2.188,2.188,0,0,0,3.029,3.16l.066-.066a26.28,26.28,0,0,0-.026-37.126L16.895,6.846a2.188,2.188,0,0,0-1.571-.661Z" transform="translate(37.628 10.754)"/><path class="a" d="M16.358,3.356a2.2,2.2,0,0,0-1.506.665l-3.195,3.2a2.188,2.188,0,0,0,3.029,3.16l.066-.066,3.2-3.2a2.187,2.187,0,0,0-1.593-3.759Z" transform="translate(30.335 1.198)"/><path class="a" d="M13.155,4.093a2.187,2.187,0,0,0-.941,4.153l4.044,2.07a2.189,2.189,0,1,0,1.991-3.9L14.205,4.351a2.146,2.146,0,0,0-1.05-.258Z" transform="translate(30.334 3.69)"/><path class="a" d="M13.58,4.1a2.2,2.2,0,0,0-2.026,1.882l-.7,4.477a2.189,2.189,0,1,0,4.324.687l0-.009.691-4.482a2.191,2.191,0,0,0-1.786-2.53A2.454,2.454,0,0,0,13.58,4.1Z" transform="translate(29.804 3.688)"/><path class="a" d="M16.677,4.093a2.011,2.011,0,0,0-.368.044l-4.482.7a2.19,2.19,0,1,0,.635,4.333l.039,0,4.482-.7A2.188,2.188,0,0,0,16.677,4.1Z" transform="translate(26.856 3.691)"/><path class="a" d="M12.73,3.158a2.183,2.183,0,0,0-1.965,3.212l2.074,4.053A2.189,2.189,0,0,0,16.748,8.45l-.009-.018L14.66,4.379A2.176,2.176,0,0,0,12.73,3.158Z" transform="translate(28.724 0.533)"/><path class="a" d="M32.259,19.275a2.175,2.175,0,0,0-1.506.656l-3.2,3.2a2.193,2.193,0,1,0,3.1,3.1l3.195-3.208a2.187,2.187,0,0,0-1.589-3.751Z" transform="translate(84.104 54.949)"/><path class="a" d="M28.649,19.076a2.19,2.19,0,0,0-2.223,2.158,2.237,2.237,0,0,0,.254,1.059l2.079,4.048a2.188,2.188,0,0,0,4-1.764c-.035-.079-.074-.153-.114-.228L30.579,20.3A2.2,2.2,0,0,0,28.649,19.076Z" transform="translate(82.475 54.281)"/><path class="a" d="M32.61,20.012a2.108,2.108,0,0,0-.368.044l-4.477.691a2.188,2.188,0,1,0,.582,4.337l.083-.013,4.49-.691a2.189,2.189,0,0,0-.311-4.359Z" transform="translate(80.589 57.442)"/><path class="a" d="M29.5,20.015A2.188,2.188,0,0,0,27.468,21.9l-.692,4.477a2.189,2.189,0,0,0,4.315.744l.009-.079.692-4.477A2.186,2.186,0,0,0,30,20.041,2.33,2.33,0,0,0,29.5,20.015Z" transform="translate(83.551 57.439)"/><path class="a" d="M29.067,20.012a2.187,2.187,0,0,0-.937,4.153l4.048,2.07a2.19,2.19,0,0,0,2-3.9l-4.044-2.066a2.148,2.148,0,0,0-1.064-.258Z" transform="translate(84.079 57.442)"/><path class="a" d="M25.641,15.643a2.186,2.186,0,0,0,0,3.094h0a2.182,2.182,0,0,0,3.094,0h0a2.182,2.182,0,0,0,0-3.094h0a2.182,2.182,0,0,0-3.094,0Z" transform="translate(77.658 40.519)"/><path class="a" d="M16.639,6.64a2.191,2.191,0,0,0,3.1,3.1h0a2.189,2.189,0,0,0-3.094-3.1Z" transform="translate(47.267 10.129)"/><path class="a" d="M23.642,22.641a2.182,2.182,0,0,0,0,3.094h0a2.182,2.182,0,0,0,3.094,0h0a2.182,2.182,0,0,0,0-3.094h0a2.19,2.19,0,0,0-3.094,0Z" transform="translate(70.904 64.157)"/><path class="a" d="M9.639,8.64a2.2,2.2,0,0,0,0,3.1h0a2.2,2.2,0,0,0,3.1,0h0a2.2,2.2,0,0,0,0-3.1h0a2.2,2.2,0,0,0-3.1,0Z" transform="translate(23.631 16.882)"/><path class="a" d="M25.142,11.643a2.182,2.182,0,0,0,0,3.094h0a2.186,2.186,0,0,0,3.094,0h0a2.182,2.182,0,0,0,0-3.094h0a2.182,2.182,0,0,0-3.094,0Z" transform="translate(75.969 27.012)"/><path class="a" d="M20.642,7.14a2.187,2.187,0,0,0,0,3.1h0a2.19,2.19,0,0,0,3.094,0h0a2.187,2.187,0,0,0,0-3.1h0a2.19,2.19,0,0,0-3.094,0Z" transform="translate(60.774 11.817)"/><path class="a" d="M28.64,17.141a2.19,2.19,0,0,0,0,3.094h0a2.189,2.189,0,0,0,3.1-3.094h0A2.19,2.19,0,0,0,28.64,17.141Z" transform="translate(87.789 45.586)"/><path class="a" d="M15.639,3.643a2.19,2.19,0,0,0,0,3.094h0a2.187,2.187,0,0,0,3.1,0h0a2.19,2.19,0,0,0,0-3.094h0a2.187,2.187,0,0,0-3.1,0Z" transform="translate(43.89 0)"/></g></svg>