<svg xmlns="http://www.w3.org/2000/svg" width="22.5" height="22.5" viewBox="0 0 22.5 22.5"><defs><style>.a{fill:#3e83fa;}</style></defs><path class="a" d="M15-22.5a11.069,11.069,0,0,0-5.391,1.377A11.11,11.11,0,0,0,5.625-17.49v-3.135H3.75v6.563h6.563v-1.875h-3.4a9.289,9.289,0,0,1,3.34-3.4A9.218,9.218,0,0,1,15-20.625a9.218,9.218,0,0,1,4.746,1.289A9.13,9.13,0,0,1,23.086-16a9.218,9.218,0,0,1,1.289,4.746A9.218,9.218,0,0,1,23.086-6.5a9.13,9.13,0,0,1-3.34,3.34A9.218,9.218,0,0,1,15-1.875a9.218,9.218,0,0,1-4.746-1.289A9.13,9.13,0,0,1,6.914-6.5,9.218,9.218,0,0,1,5.625-11.25H3.75A11.009,11.009,0,0,0,5.3-5.566,10.919,10.919,0,0,0,9.316-1.523,11.17,11.17,0,0,0,15,0a11.17,11.17,0,0,0,5.684-1.523,11.145,11.145,0,0,0,4.043-4.043A11.17,11.17,0,0,0,26.25-11.25a11.17,11.17,0,0,0-1.523-5.684,10.919,10.919,0,0,0-4.043-4.014A11.009,11.009,0,0,0,15-22.5Zm-.937,3.75v8.438h6.563v-1.875H15.938V-18.75Z" transform="translate(-3.75 22.5)"/></svg>